<?xml version="1.0" encoding="utf-8"?>
<!-- Generator: Adobe Illustrator 23.0.2, SVG Export Plug-In . SVG Version: 6.00 Build 0)  -->
<svg version="1.1" id="Logo__x2014__FIXED" xmlns="http://www.w3.org/2000/svg" xmlns:xlink="http://www.w3.org/1999/xlink" x="0px"
	 y="0px" viewBox="0 0 400 400" style="enable-background:new 0 0 400 400;" xml:space="preserve">
<style type="text/css">
	.st0{fill:none;}
	.st1{fill:#1DA1F2;}
</style>
<g>
	<rect x="-105.87" y="-105.87" class="st0" width="611.73" height="611.73"/>
	<path class="st1" d="M129.07,355.36c144.28,0,223.18-119.53,223.18-223.18c0-3.4-0.07-6.78-0.22-10.14
		c15.31-11.07,28.63-24.89,39.13-40.61c-14.06,6.24-29.18,10.45-45.05,12.35c16.19-9.71,28.63-25.08,34.49-43.39
		c-15.16,8.99-31.94,15.52-49.81,19.04c-14.31-15.25-34.7-24.78-57.26-24.78c-43.32,0-78.45,35.13-78.45,78.44
		c0,6.16,0.69,12.14,2.04,17.89c-65.19-3.28-123-34.49-161.68-81.95C28.7,70.59,24.82,84.06,24.82,98.43
		c0,27.21,13.85,51.24,34.91,65.29c-12.87-0.4-24.96-3.93-35.53-9.81c-0.02,0.33-0.02,0.66-0.02,1c0,37.99,27.04,69.71,62.93,76.9
		c-6.59,1.79-13.52,2.76-20.68,2.76c-5.05,0-9.97-0.5-14.75-1.41c9.99,31.16,38.94,53.84,73.28,54.48
		c-26.85,21.04-60.67,33.58-97.42,33.58c-6.33,0-12.57-0.36-18.71-1.09C43.55,342.38,84.77,355.36,129.07,355.36"/>
</g>
</svg>
