<svg id="Layer_1" data-name="Layer 1" xmlns="http://www.w3.org/2000/svg" viewBox="0 0 1218.46 698.67"><defs><style>.cls-1{fill:#fa8672;}.cls-2{fill:#5a3845;}.cls-3{fill:#8f4e64;}.cls-4{fill:#c76670;}.cls-5,.cls-7{font-size:36.8px;}.cls-5{fill:#fff;}.cls-10,.cls-13,.cls-5{font-family:Arial-BoldMT, Arial;font-weight:700;}.cls-6{fill:none;stroke:#999;stroke-miterlimit:10;stroke-width:3px;}.cls-14,.cls-15,.cls-7{font-family:ArialMT, Arial;}.cls-8,.cls-9{font-size:27.6px;}.cls-9{letter-spacing:0em;}.cls-10{font-size:54px;}.cls-11{letter-spacing:-0.07em;}.cls-12{letter-spacing:-0.02em;}.cls-13{font-size:153.11px;}.cls-14{font-size:45.93px;}.cls-14,.cls-15{font-weight:400;}.cls-15{font-size:36px;}</style></defs><title>canada-ghg-emissions</title><path class="cls-1" d="M452.32,153c0-8.31.11-16.62-.06-24.93-.06-2.85.59-3.93,3.69-3.85,8.3.21,16.58.69,24.84,1.55,2.19.23,2.64,1.09,2.4,3-1.95,15.67-3.77,31.37-5.85,47-1,7.56-1.22,7.55-8.92,7.2-4.34-.2-8.68-.64-13-.66-2.45,0-3.15-.85-3.12-3.23C452.39,170.44,452.32,161.73,452.32,153Z" transform="translate(-103.56 -48.08)"/><path class="cls-2" d="M447,153.15c0,8.19-.18,16.39.09,24.56.11,3.41-1.08,4.19-4.23,4.23A239.78,239.78,0,0,0,377.76,192,253.05,253.05,0,0,0,196.17,428.15c-1.09,41.83,7.27,81.58,25.8,119.06,24,48.5,60,85.76,107.46,111.56a247.69,247.69,0,0,0,111.68,30,253.68,253.68,0,0,0,252-324.57c-.51-1.75-.43-2.48,1.53-3.08q25.13-7.76,50.18-15.74c1.85-.59,2.65-.43,3.29,1.75a311.35,311.35,0,0,1-103.8,331c-42.53,34-90.73,55.28-144.38,64.26a303.46,303.46,0,0,1-139.79-9c-51.6-15.63-96.41-42.75-134-81.55q-54.62-56.4-75.9-132c-12.15-42.81-15.2-86.23-8.45-130.14,11-71.73,43.05-132.73,96-182.39,40.52-38,88.3-62.78,142.35-75.39a296.72,296.72,0,0,1,63.13-7.78c2.89,0,3.88.53,3.8,3.61C446.84,136.25,447,144.7,447,153.15Z" transform="translate(-103.56 -48.08)"/><path class="cls-3" d="M587.51,157.1c.58.32,1.15.65,1.73,1q72.88,37.24,118.49,105.21a311.83,311.83,0,0,1,35.72,72.07c1.19,3.42,1,4.87-2.85,6-15.53,4.62-31,9.51-46.39,14.55-3.44,1.13-4.68.41-5.85-3a251.59,251.59,0,0,0-66-101.9A244.8,244.8,0,0,0,565,210.56c-2.73-1.39-3.27-2.56-1.88-5.37,7.37-14.89,14.53-29.89,21.84-44.81C585.55,159.19,585.71,157.49,587.51,157.1Z" transform="translate(-103.56 -48.08)"/><path class="cls-4" d="M490.45,127.1A320.07,320.07,0,0,1,543.08,139a330.39,330.39,0,0,1,35.71,13.87c2.54,1.14,3,2.18,1.74,4.64q-11.32,23.06-22.4,46.25c-1.1,2.33-2.06,2.62-4.38,1.54a253.84,253.84,0,0,0-62.89-19.41c-.52-.09-1-.23-1.55-.31-7.57-1.17-7.6-1.17-6.73-8.58q2.75-23.55,5.55-47.1C488.31,128.36,488.18,126.51,490.45,127.1Z" transform="translate(-103.56 -48.08)"/><rect x="626.56" y="138.46" width="93.06" height="53.44" rx="26.72"/><text class="cls-5" transform="translate(636.54 177.65)">13%</text><rect x="485.58" y="44.29" width="74.81" height="53.44" rx="26.72"/><text class="cls-5" transform="translate(497.39 83.39)">5%</text><polyline class="cls-6" points="563.4 209.47 613.63 165.18 626.56 165.18"/><rect y="614.68" width="93.06" height="53.44" rx="26.72"/><text class="cls-5" transform="translate(9.98 653.86)">80%</text><polyline class="cls-6" points="156.22 597.11 105.99 641.4 93.06 641.4"/><polyline class="cls-6" points="422.41 115.3 472.65 71.01 485.58 71.01"/><rect x="326.34" width="74.81" height="53.44" rx="26.72"/><text class="cls-5" transform="translate(338.71 38.86)">2%</text><line class="cls-6" x1="363.75" y1="105.61" x2="363.75" y2="53.44"/><rect class="cls-4" x="745.96" y="396.72" width="54.79" height="54.79"/><rect class="cls-1" x="745.96" y="469.16" width="54.79" height="54.79"/><rect class="cls-3" x="745.96" y="324.29" width="54.79" height="54.79"/><rect class="cls-2" x="745.96" y="250.83" width="54.79" height="54.79"/><text class="cls-7" transform="translate(818.6 290.79)">Carbon Dioxide <tspan class="cls-8" x="263.9" y="0">(CO2)</tspan></text><text class="cls-7" transform="translate(818.6 365.02)">Methane <tspan class="cls-8" x="153.45" y="0">(CH4)</tspan></text><text class="cls-7" transform="translate(818.6 436.05)">Nitrous Oxide <tspan class="cls-8" x="233.17" y="0">(N2O)</tspan></text><text class="cls-7" transform="translate(818.6 508.69)">Fluorinated Gases <tspan class="cls-9" x="310.95" y="0">(HFCs)</tspan></text><text class="cls-10" transform="translate(209.02 258.4)">N<tspan class="cls-11" x="39" y="0">A</tspan><tspan x="73.99" y="0">TIONA</tspan><tspan class="cls-12" x="241.97" y="0">L</tspan><tspan x="273.98" y="0"> </tspan><tspan class="cls-12" x="40.51" y="64.8">T</tspan><tspan x="72.52" y="64.8">O</tspan><tspan class="cls-11" x="114.53" y="64.8">T</tspan><tspan x="143.5" y="64.8">AL:</tspan></text><text class="cls-13" transform="translate(211.91 460.75)">716<tspan class="cls-14" x="255.46" y="0"> </tspan><tspan class="cls-14"><tspan x="28.19" y="55.12">Mt CO2 eq</tspan></tspan><tspan class="cls-15"><tspan x="82.08" y="98.32">(2017)</tspan></tspan></text></svg>