<svg id="Layer_1" data-name="Layer 1" xmlns="http://www.w3.org/2000/svg" viewBox="0 0 1295.17 699.12"><defs><style>.cls-1{fill:#fa8572;}.cls-2{fill:#d87569;}.cls-3{fill:#975657;}.cls-4{fill:#b76560;}.cls-5{fill:#78474e;}.cls-6{fill:#5a3845;}.cls-10,.cls-7{font-size:36.8px;}.cls-7{fill:#fff;}.cls-13,.cls-16,.cls-7{font-family:Arial-BoldMT, Arial;font-weight:700;}.cls-8{fill:none;stroke:#999;stroke-miterlimit:10;stroke-width:3px;}.cls-9{fill:#d87669;}.cls-10,.cls-17,.cls-18{font-family:ArialMT, Arial;}.cls-11{letter-spacing:-0.04em;}.cls-12{font-size:30px;}.cls-13{font-size:54px;}.cls-14{letter-spacing:-0.07em;}.cls-15{letter-spacing:-0.02em;}.cls-16{font-size:153.11px;}.cls-17{font-size:45.93px;}.cls-17,.cls-18{font-weight:400;}.cls-18{font-size:36px;}</style></defs><title>canada-ghg-emissions-sector</title><path class="cls-1" d="M760.65,437.21c-.54,52.68-13.08,102.29-38.38,148.5C695.7,634.24,658.63,673,611.56,702.05a310.15,310.15,0,0,1-78.45,34.27c-3.11.89-4.16.39-5-2.89q-5.88-24.23-12.39-48.31c-.76-2.84,0-3.59,2.54-4.28a246.49,246.49,0,0,0,85.29-42.73,252.8,252.8,0,0,0,77.33-98,247.58,247.58,0,0,0,20-69.88A254.44,254.44,0,0,0,569.26,212.48a247.32,247.32,0,0,0-91.39-28.62,187.8,187.8,0,0,0-23-1.51c-2.4,0-3.11-.78-3.1-3.15.09-17.07.12-34.13,0-51.19,0-3,1.22-3.34,3.71-3.24,26.48,1.06,52.57,4.56,78.1,11.85a311.92,311.92,0,0,1,221,239.71A277,277,0,0,1,760,423.17C760.13,427.85,760.44,432.53,760.65,437.21Z" transform="translate(-25.65 -48.72)"/><path class="cls-2" d="M448.39,747.76a304.35,304.35,0,0,1-145.42-36,310.47,310.47,0,0,1-149-175,318.14,318.14,0,0,1-15.43-71.49c-.62-6.19-.64-6.29,5.4-6.69,16.23-1.09,32.46-2.05,48.69-3.14,2.47-.17,2.7,1.17,2.86,3.07A254.89,254.89,0,0,0,350.2,670.87a248.73,248.73,0,0,0,70,18.28,252.43,252.43,0,0,0,86.46-5c2.6-.61,3.14.28,3.66,2.33,4.22,16.63,8.43,33.26,12.81,49.85.68,2.57-.32,3.07-2.38,3.53a307.86,307.86,0,0,1-55.94,7.92C459.33,748,453.86,747.76,448.39,747.76Z" transform="translate(-25.65 -48.72)"/><path class="cls-3" d="M296.81,232.82c-1.12,1-2.14,1.91-3.25,2.75A253.58,253.58,0,0,0,221.4,323c-1.23,2.5-2.29,2.79-4.69,1.65q-23.09-11-46.29-21.66c-2.24-1-2.51-1.89-1.43-4a314.24,314.24,0,0,1,91.46-110.48c2.39-1.82,3.3-1.52,5,.85,9.82,13.76,19.86,27.37,29.81,41C295.78,231,296.2,231.84,296.81,232.82Z" transform="translate(-25.65 -48.72)"/><path class="cls-4" d="M137.49,432a303.27,303.27,0,0,1,26.34-121.54C165,307.8,166,307,169,308.37c15.13,7.26,30.35,14.34,45.57,21.41,2.22,1,3.13,1.86,1.9,4.59-15.76,35.16-22.69,72.08-21.53,110.53.11,3.78-.62,5-4.68,5.22-16.65.76-33.27,1.92-49.89,3.08-2.47.18-2.88-.79-2.86-2.83C137.53,444.25,137.49,438.13,137.49,432Z" transform="translate(-25.65 -48.72)"/><path class="cls-5" d="M398,185.75c.46,2.39-1.54,2.22-2.95,2.53A256.56,256.56,0,0,0,356.63,200a234,234,0,0,0-51.41,27.48c-2.81,2-4.06,1.68-6-1.07q-14.31-20.22-29-40.13c-1.76-2.4-1.74-3.57.84-5.37a310.8,310.8,0,0,1,89.9-43.2c7.6-2.25,15.24-4.33,23-5.93,2.34-.49,3.83-.36,4.36,2.55,3.1,16.87,6.35,33.71,9.54,50.57C397.88,185.13,397.9,185.39,398,185.75Z" transform="translate(-25.65 -48.72)"/><path class="cls-6" d="M446.29,153.81c0,8.46-.08,16.93,0,25.39,0,2.45-.54,3.4-3.2,3.43a225.59,225.59,0,0,0-36.49,3.52c-2.23.39-2.92-.28-3.31-2.41q-4.69-25.52-9.66-51c-.46-2.3.14-3,2.24-3.33a340.56,340.56,0,0,1,47.38-4.52c2.52-.09,3.06.82,3,3.12C446.22,136.62,446.29,145.21,446.29,153.81Z" transform="translate(-25.65 -48.72)"/><rect x="704.47" y="137.82" width="93.06" height="53.44" rx="26.72"/><text class="cls-7" transform="translate(714.45 177.01)">46%</text><rect x="169.23" y="52.81" width="74.81" height="53.44" rx="26.72"/><text class="cls-7" transform="translate(181.05 91.9)">7%</text><polyline class="cls-8" points="641.31 208.83 691.54 164.54 704.48 164.54"/><rect x="77.91" y="614.04" width="93.06" height="53.44" rx="26.72"/><text class="cls-7" transform="translate(87.89 653.23)">28%</text><polyline class="cls-8" points="234.14 596.47 183.91 640.76 170.98 640.76"/><polyline class="cls-8" points="307.84 131.43 256.97 79.53 244.04 79.53"/><rect x="63.16" y="148.09" width="74.81" height="53.44" rx="26.72"/><text class="cls-7" transform="translate(74.98 187.19)">8%</text><polyline class="cls-8" points="206.63 212.82 150.91 174.81 137.97 174.81"/><rect y="304.95" width="74.81" height="53.44" rx="26.72"/><text class="cls-7" transform="translate(11.82 344.04)">8%</text><line class="cls-8" x1="143.53" y1="337.74" x2="74.81" y2="331.67"/><rect x="348.6" width="74.81" height="53.44" rx="26.72"/><text class="cls-7" transform="translate(360.97 38.86)">3%</text><line class="cls-8" x1="394.29" y1="106.86" x2="386.01" y2="53.44"/><rect class="cls-4" x="823.88" y="342.81" width="54.79" height="54.79"/><rect class="cls-3" x="823.88" y="415.25" width="54.79" height="54.79"/><rect class="cls-9" x="823.88" y="270.38" width="54.79" height="54.79"/><rect class="cls-1" x="823.88" y="196.92" width="54.79" height="54.79"/><text class="cls-10" transform="translate(896.51 236.88)">Stationary Energy</text><text class="cls-10" transform="translate(896.51 311.11)"><tspan class="cls-11">T</tspan><tspan x="21.12" y="0">ransportation</tspan></text><text class="cls-10" transform="translate(896.51 381.58)">Agriculture</text><text class="cls-10" transform="translate(896.51 454.78)">Fugitive Emission <tspan class="cls-12" x="298.62" y="0">(Leaks)</tspan></text><rect class="cls-5" x="823.88" y="487.68" width="54.79" height="54.79"/><text class="cls-10" transform="translate(896.51 527.21)">Manufacturing</text><rect class="cls-6" x="823.88" y="560.11" width="54.79" height="54.79"/><text class="cls-10" transform="translate(896.51 599.65)">Garbage/<tspan class="cls-11" x="153.45" y="0">W</tspan><tspan x="186.83" y="0">aste</tspan></text><text class="cls-13" transform="translate(286.94 257.77)">N<tspan class="cls-14" x="39" y="0">A</tspan><tspan x="73.99" y="0">TIONA</tspan><tspan class="cls-15" x="241.97" y="0">L</tspan><tspan x="273.98" y="0"> </tspan><tspan class="cls-15" x="40.51" y="64.8">T</tspan><tspan x="72.52" y="64.8">O</tspan><tspan class="cls-14" x="114.53" y="64.8">T</tspan><tspan x="143.5" y="64.8">AL:</tspan></text><text class="cls-16" transform="translate(289.82 460.12)">716<tspan class="cls-17" x="255.46" y="0"> </tspan><tspan class="cls-17"><tspan x="28.19" y="55.12">Mt CO2 eq</tspan></tspan><tspan class="cls-18"><tspan x="82.08" y="98.32">(2017)</tspan></tspan></text></svg>